# Exported from ProBuilder
# http://www.procore3d.com/probuilder
# 2018. 10. 03. 18:25:33

mtllib ./Tank.mtl
o Tank

g Tank
v 1.186921 -0.5143864 2.007016
v 1.437976 -0.5143864 -2.006672
v -1.437976 -0.5143864 -2.007016
v -1.109537 -0.5143864 1.999082
v -1.437976 -0.5143864 -2.007016
v 1.437976 -0.5143864 -2.006672
v -1.028589 0.5142863 -1.752309
v 1.034091 0.5142863 -1.752013
v -1.109537 -0.5143864 1.999082
v -1.437976 -0.5143864 -2.007016
v -0.5191699 0.5142863 1.356706
v -1.028589 0.5142863 -1.752309
v 1.437976 -0.5143864 -2.006672
v 1.186921 -0.5143864 2.007016
v 1.034091 0.5142863 -1.752013
v 0.5927578 0.5142863 1.363525
v 1.186921 -0.5143864 2.007016
v -1.109537 -0.5143864 1.999082
v 0.5927578 0.5142863 1.363525
v -0.5191699 0.5142863 1.356706
v -1.028589 0.5142863 -1.752309
v 1.034091 0.5142863 -1.752013
v -0.7828957 0.5143863 -1.351918
v 0.7970463 0.5143863 -1.351698
v -0.5191699 0.5142863 1.356706
v -1.028589 0.5142863 -1.752309
v -0.470615 0.5143863 0.9572301
v -0.7828957 0.5143863 -1.351918
v 1.034091 0.5142863 -1.752013
v 0.5927578 0.5142863 1.363525
v 0.7970463 0.5143863 -1.351698
v 0.5347016 0.5143863 0.9622943
v 0.5927578 0.5142863 1.363525
v -0.5191699 0.5142863 1.356706
v 0.5347016 0.5143863 0.9622943
v -0.470615 0.5143863 0.9572301
v -0.7828957 0.5143863 -1.351918
v -0.470615 0.5143863 0.9572301
v 0.5347016 0.5143863 0.9622943
v 0.7970463 0.5143863 -1.351698

vn 0 -1 0
vn 0 -1 0
vn 0 -1 0
vn 0 -1 0
vn 0.000125819 0.2403274 -0.9706919
vn 0.0001161996 0.2403492 -0.9706864
vn 0.0001392312 0.240297 -0.9706994
vn 0.000125819 0.2403274 -0.9706919
vn -0.8866357 0.4505289 0.104408
vn -0.9327641 0.3522827 0.07647239
vn -0.8208482 0.5550842 0.1344978
vn -0.8866357 0.4505289 0.104408
vn 0.8898423 0.4480092 0.08642112
vn 0.8499429 0.5241857 0.05316358
vn 0.9333513 0.3337284 0.1322143
vn 0.8898423 0.4480092 0.08642112
vn -0.003670503 0.5299981 0.8479909
vn -0.002928021 0.5308818 0.8474408
vn -0.005206978 0.5281667 0.8491248
vn -0.003670503 0.5299981 0.8479909
vn 3.535207E-08 0.9999999 -0.0002498211
vn 3.583546E-08 0.9999999 -0.0002498233
vn 3.4721E-08 0.9999999 -0.0002498182
vn 3.535207E-08 0.9999999 -0.0002498211
vn -0.000680132 0.9999998 0.0001031464
vn -0.0005553756 0.9999999 9.09995E-05
vn -0.0009750234 0.9999995 0.0001318586
vn -0.000680132 0.9999998 0.0001031464
vn 0.0006775747 0.9999998 8.781499E-05
vn 0.0008705211 0.9999996 0.0001233141
vn 0.0005218453 0.9999998 5.916327E-05
vn 0.0006775747 0.9999998 8.781499E-05
vn -1.402182E-06 0.9999999 0.0002498374
vn -1.534164E-06 1 0.0002501828
vn -1.256627E-06 1 0.0002494564
vn -1.402182E-06 0.9999999 0.0002498374
vn 0 0.9999999 0
vn 0 1 0
vn 0 0.9999999 0
vn 0 1 0

vt 1.186921 2.007016
vt 1.437976 -2.006672
vt -1.437976 -2.007016
vt -1.109537 1.999082
vt 1.438216 -0.9815696
vt -1.437736 -0.9815696
vt 1.028799 0.07815601
vt -1.033881 0.07816777
vt 1.901736 -1.107712
vt -2.117803 -1.107712
vt 1.309748 0.1042688
vt -1.830496 -0.02987232
vt 2.092527 -0.9428604
vt -1.929005 -0.9428604
vt 1.813152 0.1562716
vt -1.323861 0.2429237
vt 1.193849 -1.496253
vt -1.102624 -1.496253
vt 0.5974654 -0.2839797
vt -0.5144793 -0.2824047
vt 1.028589 -1.752181
vt -1.034091 -1.751885
vt 0.7828957 -1.351789
vt -0.7970463 -1.351569
vt 0.5187186 1.356632
vt 1.028137 -1.752383
vt 0.4701636 0.9571561
vt 0.7824442 -1.351992
vt -1.033805 -1.752054
vt -0.5924725 1.363485
vt -0.7967609 -1.351738
vt -0.5344163 0.9622539
vt -0.5927586 1.363397
vt 0.5191692 1.356578
vt -0.5347024 0.962166
vt 0.4706143 0.9571018
vt 0.7828957 -1.351918
vt 0.470615 0.9572301
vt -0.5347016 0.9622943
vt -0.7970463 -1.351698

g Tank
usemtl Tank
f 4/4/4 3/3/3 2/2/2 1/1/1
f 7/7/7 8/8/8 6/6/6 5/5/5
f 11/11/11 12/12/12 10/10/10 9/9/9
f 15/15/15 16/16/16 14/14/14 13/13/13
f 19/19/19 20/20/20 18/18/18 17/17/17
f 23/23/23 24/24/24 22/22/22 21/21/21
f 27/27/27 28/28/28 26/26/26 25/25/25
f 31/31/31 32/32/32 30/30/30 29/29/29
f 35/35/35 36/36/36 34/34/34 33/33/33
f 38/38/38 39/39/39 40/40/40 37/37/37

